# xmcd CD database file
#
# Track frame offsets:
#	150
#	12663
#	26844
#	40306
#	52741
#	67880
#	80747
#	95035
#	109635
#	123389
#	145153
#	165731
#	177877
#	190889
#	206346
#	220537
#	235483
#	249277
#	265035
#	280149
#
# Disc length: 3942 seconds
#
# Revision: 1
# Processed by: cddbd v1.5.1PL0 Copyright (c) Steve Scherf et al.
# Submitted via: CDex 1.51
#
DISCID=170f6414
DTITLE=HMV - Favourite Hits From the Portable Years
DYEAR=1900
DGENRE=Jazz
TTITLE0=Stevedore Stomp-Duke Ellington and his Cotton Club Orch.  B6106.  New York. 7/3/29
TTITLE1=Painting the Clouds with Sunshine-Gracie Fields.  B3291. 9/01/30
TTITLE2=Limehouse Blues-Jack Hylton and his Orch.  B5789.  London.  10/01/30
TTITLE3=You Forgot Your Gloves-Jack Buchanan.  B4005. 29/10/31
TTITLE4=Grasshopper's Dance-Jack Hylton and his Orch.  B3790.  London. 16 June 1931
TTITLE5=Mad Dogs and Englishmen-Noel Coward.  B4269.20/9/32
TTITLE6=Dancing in the Dark-Ambrose and his Orch. (Voc.  Sam Browne).  B6132.  11/1/32
TTITLE7=West End Blues-Louis Armstrong and his Hot Five.  Parlophone.  R448.  Chicago. 28/6/28
TTITLE8=Echo of a Song-Ray Noble and his New Mayfair Dance Orch. (Voc.  Al Bowlly).  B6193.  London. 8/6/32
TTITLE9=Our Village Concert 1-Sydney Howard, Vera Pearce, Leonard Henry and Co. C1782. 15/10/29
TTITLE10=Our Village Concert 2-Sydney Howard, Vera Pearce, Leonard Henry and Co. C 1 782. 15/10/29
TTITLE11=Bach Goes to Town-Benny Goodman;& his Orch.  B8879. 15/12/38
TTITLE12=My Last Year's Girl-Jack Hulbert (with Eddie and Rex).  B8162 London. 9/3/34
TTITLE13=Wedding Of The Painted Doll-Jack Hylton and his Orch. (Voc.  Sam Browne).  B5637 London. 26/4/29
TTITLE14=Nasty Man-Ray Noble and his Orch. (Voc.  Dorothy Carless).  B6499.  London. 28/6/32
TTITLE15=On a Cold and Frosty Morning-Ray Noble and his New Mayfair Dance Orch.  B6097.  London. 14/11/31
TTITLE16=I Guess I'll Have to Change My Plan-Ambrose and his Orch. (Voc.  Sam Browne).  B6261. 18/10/32
TTITLE17=April In Paris-Artie Shaw and his Orch.  B9105. 13/5/40
TTITLE18=They Say-Geraldo and his Orch. (Voc.  Al Bowlly).  B5448.  London. 10/01/39
TTITLE19=Stardust-Ambrose and his Orch.  B5967. 19/01/31
EXTD=
EXTT0=
EXTT1=
EXTT2=
EXTT3=
EXTT4=
EXTT5=
EXTT6=
EXTT7=
EXTT8=
EXTT9=
EXTT10=
EXTT11=
EXTT12=
EXTT13=
EXTT14=
EXTT15=
EXTT16=
EXTT17=
EXTT18=
EXTT19=
PLAYORDER=
